<svg width="1442" height="1026" viewBox="0 0 1442 1026" fill="none" xmlns="http://www.w3.org/2000/svg">
<path d="M85.6174 147.15L1 1H170.372L85.6174 147.15Z" stroke="#EAEAEA" stroke-miterlimit="10"/>
<path d="M170.371 1L85.6167 147.15H255.125L170.371 1Z" stroke="#EAEAEA" stroke-miterlimit="10"/>
<path d="M255.13 147.15L170.376 1H339.748L255.13 147.15Z" stroke="#EAEAEA" stroke-miterlimit="10"/>
<path d="M339.742 1L255.125 147.15H424.496L339.742 1Z" stroke="#EAEAEA" stroke-miterlimit="10"/>
<path d="M424.496 147.15L339.741 1H509.25L424.496 147.15Z" stroke="#EAEAEA" stroke-miterlimit="10"/>
<path d="M509.255 1L424.501 147.15H593.872L509.255 1Z" stroke="#EAEAEA" stroke-miterlimit="10"/>
<path d="M593.867 147.15L509.249 1H678.621L593.867 147.15Z" stroke="#EAEAEA" stroke-miterlimit="10"/>
<path d="M678.62 1L593.866 147.15H763.238L678.62 1Z" stroke="#EAEAEA" stroke-miterlimit="10"/>
<path d="M763.243 147.15L678.625 1H847.997L763.243 147.15Z" stroke="#EAEAEA" stroke-miterlimit="10"/>
<path d="M847.996 1L763.242 147.15H932.75L847.996 1Z" stroke="#EAEAEA" stroke-miterlimit="10"/>
<path d="M932.745 147.15L847.991 1H1017.36L932.745 147.15Z" stroke="#EAEAEA" stroke-miterlimit="10"/>
<path d="M1017.37 1L932.75 147.15H1102.12L1017.37 1Z" stroke="#EAEAEA" stroke-miterlimit="10"/>
<path d="M1102.12 147.15L1017.37 1H1186.88L1102.12 147.15Z" stroke="#EAEAEA" stroke-miterlimit="10"/>
<path d="M1186.87 1L1102.12 147.15H1271.49L1186.87 1Z" stroke="#EAEAEA" stroke-miterlimit="10"/>
<path d="M1271.49 147.15L1186.88 1H1356.25L1271.49 147.15Z" stroke="#EAEAEA" stroke-miterlimit="10"/>
<path d="M1356.25 1L1271.49 147.15H1441L1356.25 1Z" stroke="#EAEAEA" stroke-miterlimit="10"/>
<path d="M1356.25 293.435L1441 147.15H1271.49L1356.25 293.435Z" stroke="#EAEAEA" stroke-miterlimit="10"/>
<path d="M1271.49 147.15L1356.25 293.435H1186.88L1271.49 147.15Z" stroke="#EAEAEA" stroke-miterlimit="10"/>
<path d="M1186.87 293.435L1271.49 147.15H1102.12L1186.87 293.435Z" stroke="#EAEAEA" stroke-miterlimit="10"/>
<path d="M1102.12 147.15L1186.88 293.435H1017.37L1102.12 147.15Z" stroke="#EAEAEA" stroke-miterlimit="10"/>
<path d="M1017.37 293.435L1102.12 147.15H932.75L1017.37 293.435Z" stroke="#EAEAEA" stroke-miterlimit="10"/>
<path d="M932.745 147.15L1017.36 293.435H847.991L932.745 147.15Z" stroke="#EAEAEA" stroke-miterlimit="10"/>
<path d="M847.996 293.435L932.75 147.15H763.242L847.996 293.435Z" stroke="#EAEAEA" stroke-miterlimit="10"/>
<path d="M763.243 147.15L847.997 293.435H678.625L763.243 147.15Z" stroke="#EAEAEA" stroke-miterlimit="10"/>
<path d="M678.62 293.435L763.238 147.15H593.866L678.62 293.435Z" stroke="#EAEAEA" stroke-miterlimit="10"/>
<path d="M593.867 147.15L678.621 293.435H509.249L593.867 147.15Z" stroke="#EAEAEA" stroke-miterlimit="10"/>
<path d="M509.255 293.435L593.872 147.15H424.501L509.255 293.435Z" stroke="#EAEAEA" stroke-miterlimit="10"/>
<path d="M424.496 147.15L509.25 293.435H339.741L424.496 147.15Z" stroke="#EAEAEA" stroke-miterlimit="10"/>
<path d="M339.742 293.435L424.496 147.15H255.125L339.742 293.435Z" stroke="#EAEAEA" stroke-miterlimit="10"/>
<path d="M255.13 147.15L339.748 293.435H170.376L255.13 147.15Z" stroke="#EAEAEA" stroke-miterlimit="10"/>
<path d="M170.371 293.435L255.125 147.15H85.6167L170.371 293.435Z" stroke="#EAEAEA" stroke-miterlimit="10"/>
<path d="M85.6174 147.15L170.372 293.435H1L85.6174 147.15Z" stroke="#EAEAEA" stroke-miterlimit="10"/>
<path d="M85.6174 439.857L1 293.708H170.372L85.6174 439.857Z" stroke="#EAEAEA" stroke-miterlimit="10"/>
<path d="M170.371 293.708L85.6167 439.857H255.125L170.371 293.708Z" stroke="#EAEAEA" stroke-miterlimit="10"/>
<path d="M255.13 439.857L170.376 293.708H339.748L255.13 439.857Z" stroke="#EAEAEA" stroke-miterlimit="10"/>
<path d="M339.742 293.708L255.125 439.857H424.496L339.742 293.708Z" stroke="#EAEAEA" stroke-miterlimit="10"/>
<path d="M424.496 439.857L339.741 293.708H509.25L424.496 439.857Z" stroke="#EAEAEA" stroke-miterlimit="10"/>
<path d="M509.255 293.708L424.501 439.857H593.872L509.255 293.708Z" stroke="#EAEAEA" stroke-miterlimit="10"/>
<path d="M593.867 439.857L509.249 293.708H678.621L593.867 439.857Z" stroke="#EAEAEA" stroke-miterlimit="10"/>
<path d="M678.62 293.708L593.866 439.857H763.238L678.62 293.708Z" stroke="#EAEAEA" stroke-miterlimit="10"/>
<path d="M763.243 439.857L678.625 293.708H847.997L763.243 439.857Z" stroke="#EAEAEA" stroke-miterlimit="10"/>
<path d="M847.996 293.708L763.242 439.857H932.75L847.996 293.708Z" stroke="#EAEAEA" stroke-miterlimit="10"/>
<path d="M932.745 439.857L847.991 293.708H1017.36L932.745 439.857Z" stroke="#EAEAEA" stroke-miterlimit="10"/>
<path d="M1017.37 293.708L932.75 439.857H1102.12L1017.37 293.708Z" stroke="#EAEAEA" stroke-miterlimit="10"/>
<path d="M1102.12 439.857L1017.37 293.708H1186.88L1102.12 439.857Z" stroke="#EAEAEA" stroke-miterlimit="10"/>
<path d="M1186.87 293.708L1102.12 439.857H1271.49L1186.87 293.708Z" stroke="#EAEAEA" stroke-miterlimit="10"/>
<path d="M1271.49 439.857L1186.88 293.708H1356.25L1271.49 439.857Z" stroke="#EAEAEA" stroke-miterlimit="10"/>
<path d="M1356.25 293.708L1271.49 439.857H1441L1356.25 293.708Z" stroke="#EAEAEA" stroke-miterlimit="10"/>
<path d="M1356.25 586.007L1441 439.857H1271.49L1356.25 586.007Z" stroke="#EAEAEA" stroke-miterlimit="10"/>
<path d="M1271.49 439.857L1356.25 586.007H1186.88L1271.49 439.857Z" stroke="#EAEAEA" stroke-miterlimit="10"/>
<path d="M1186.87 586.007L1271.49 439.857H1102.12L1186.87 586.007Z" stroke="#EAEAEA" stroke-miterlimit="10"/>
<path d="M1102.12 439.857L1186.88 586.007H1017.37L1102.12 439.857Z" stroke="#EAEAEA" stroke-miterlimit="10"/>
<path d="M1017.37 586.007L1102.12 439.857H932.75L1017.37 586.007Z" stroke="#EAEAEA" stroke-miterlimit="10"/>
<path d="M932.745 439.857L1017.36 586.007H847.991L932.745 439.857Z" stroke="#EAEAEA" stroke-miterlimit="10"/>
<path d="M847.996 586.007L932.75 439.857H763.242L847.996 586.007Z" stroke="#EAEAEA" stroke-miterlimit="10"/>
<path d="M763.243 439.857L847.997 586.007H678.625L763.243 439.857Z" stroke="#EAEAEA" stroke-miterlimit="10"/>
<path d="M678.62 586.007L763.238 439.857H593.866L678.62 586.007Z" stroke="#EAEAEA" stroke-miterlimit="10"/>
<path d="M593.867 439.857L678.621 586.007H509.249L593.867 439.857Z" stroke="#EAEAEA" stroke-miterlimit="10"/>
<path d="M509.255 586.007L593.872 439.857H424.501L509.255 586.007Z" stroke="#EAEAEA" stroke-miterlimit="10"/>
<path d="M424.496 439.857L509.25 586.007H339.741L424.496 439.857Z" stroke="#EAEAEA" stroke-miterlimit="10"/>
<path d="M339.742 586.007L424.496 439.857H255.125L339.742 586.007Z" stroke="#EAEAEA" stroke-miterlimit="10"/>
<path d="M255.13 439.857L339.748 586.007H170.376L255.13 439.857Z" stroke="#EAEAEA" stroke-miterlimit="10"/>
<path d="M170.371 586.007L255.125 439.857H85.6167L170.371 586.007Z" stroke="#EAEAEA" stroke-miterlimit="10"/>
<path d="M85.6174 439.857L170.372 586.007H1L85.6174 439.857Z" stroke="#EAEAEA" stroke-miterlimit="10"/>
<path d="M85.6174 732.156L1 586.007H170.372L85.6174 732.156Z" stroke="#EAEAEA" stroke-miterlimit="10"/>
<path d="M170.371 586.007L85.6167 732.156H255.125L170.371 586.007Z" stroke="#EAEAEA" stroke-miterlimit="10"/>
<path d="M255.13 732.156L170.376 586.007H339.748L255.13 732.156Z" stroke="#EAEAEA" stroke-miterlimit="10"/>
<path d="M339.742 586.007L255.125 732.156H424.496L339.742 586.007Z" stroke="#EAEAEA" stroke-miterlimit="10"/>
<path d="M424.496 732.156L339.741 586.007H509.25L424.496 732.156Z" stroke="#EAEAEA" stroke-miterlimit="10"/>
<path d="M509.255 586.007L424.501 732.156H593.872L509.255 586.007Z" stroke="#EAEAEA" stroke-miterlimit="10"/>
<path d="M593.867 732.156L509.249 586.007H678.621L593.867 732.156Z" stroke="#EAEAEA" stroke-miterlimit="10"/>
<path d="M678.62 586.007L593.866 732.156H763.238L678.62 586.007Z" stroke="#EAEAEA" stroke-miterlimit="10"/>
<path d="M763.243 732.156L678.625 586.007H847.997L763.243 732.156Z" stroke="#EAEAEA" stroke-miterlimit="10"/>
<path d="M847.996 586.007L763.242 732.156H932.75L847.996 586.007Z" stroke="#EAEAEA" stroke-miterlimit="10"/>
<path d="M932.745 732.156L847.991 586.007H1017.36L932.745 732.156Z" stroke="#EAEAEA" stroke-miterlimit="10"/>
<path d="M1017.37 586.007L932.75 732.156H1102.12L1017.37 586.007Z" stroke="#EAEAEA" stroke-miterlimit="10"/>
<path d="M1102.12 732.156L1017.37 586.007H1186.88L1102.12 732.156Z" stroke="#EAEAEA" stroke-miterlimit="10"/>
<path d="M1186.87 586.007L1102.12 732.156H1271.49L1186.87 586.007Z" stroke="#EAEAEA" stroke-miterlimit="10"/>
<path d="M1271.49 732.156L1186.88 586.007H1356.25L1271.49 732.156Z" stroke="#EAEAEA" stroke-miterlimit="10"/>
<path d="M1356.25 586.007L1271.49 732.156H1441L1356.25 586.007Z" stroke="#EAEAEA" stroke-miterlimit="10"/>
<path d="M1356.25 878.306L1441 732.156H1271.49L1356.25 878.306Z" stroke="#EAEAEA" stroke-miterlimit="10"/>
<path d="M1271.49 732.156L1356.25 878.306H1186.88L1271.49 732.156Z" stroke="#EAEAEA" stroke-miterlimit="10"/>
<path d="M1186.87 878.306L1271.49 732.156H1102.12L1186.87 878.306Z" stroke="#EAEAEA" stroke-miterlimit="10"/>
<path d="M1102.12 732.156L1186.88 878.306H1017.37L1102.12 732.156Z" stroke="#EAEAEA" stroke-miterlimit="10"/>
<path d="M1017.37 878.306L1102.12 732.156H932.75L1017.37 878.306Z" stroke="#EAEAEA" stroke-miterlimit="10"/>
<path d="M932.745 732.156L1017.36 878.306H847.991L932.745 732.156Z" stroke="#EAEAEA" stroke-miterlimit="10"/>
<path d="M847.996 878.306L932.75 732.156H763.242L847.996 878.306Z" stroke="#EAEAEA" stroke-miterlimit="10"/>
<path d="M763.243 732.156L847.997 878.306H678.625L763.243 732.156Z" stroke="#EAEAEA" stroke-miterlimit="10"/>
<path d="M678.62 878.306L763.238 732.156H593.866L678.62 878.306Z" stroke="#EAEAEA" stroke-miterlimit="10"/>
<path d="M593.867 732.156L678.621 878.306H509.249L593.867 732.156Z" stroke="#EAEAEA" stroke-miterlimit="10"/>
<path d="M509.255 878.306L593.872 732.156H424.501L509.255 878.306Z" stroke="#EAEAEA" stroke-miterlimit="10"/>
<path d="M424.496 732.156L509.25 878.306H339.741L424.496 732.156Z" stroke="#EAEAEA" stroke-miterlimit="10"/>
<path d="M339.742 878.306L424.496 732.156H255.125L339.742 878.306Z" stroke="#EAEAEA" stroke-miterlimit="10"/>
<path d="M255.13 732.156L339.748 878.306H170.376L255.13 732.156Z" stroke="#EAEAEA" stroke-miterlimit="10"/>
<path d="M170.371 878.306L255.125 732.156H85.6167L170.371 878.306Z" stroke="#EAEAEA" stroke-miterlimit="10"/>
<path d="M85.6174 732.156L170.372 878.306H1L85.6174 732.156Z" stroke="#EAEAEA" stroke-miterlimit="10"/>
<path d="M85.6174 1025L1 878.85H170.372L85.6174 1025Z" stroke="#EAEAEA" stroke-miterlimit="10"/>
<path d="M170.371 878.85L85.6167 1025H255.125L170.371 878.85Z" stroke="#EAEAEA" stroke-miterlimit="10"/>
<path d="M255.13 1025L170.376 878.85H339.748L255.13 1025Z" stroke="#EAEAEA" stroke-miterlimit="10"/>
<path d="M339.742 878.85L255.125 1025H424.496L339.742 878.85Z" stroke="#EAEAEA" stroke-miterlimit="10"/>
<path d="M424.496 1025L339.741 878.85H509.25L424.496 1025Z" stroke="#EAEAEA" stroke-miterlimit="10"/>
<path d="M509.255 878.85L424.501 1025H593.872L509.255 878.85Z" stroke="#EAEAEA" stroke-miterlimit="10"/>
<path d="M593.867 1025L509.249 878.85H678.621L593.867 1025Z" stroke="#EAEAEA" stroke-miterlimit="10"/>
<path d="M678.62 878.85L593.866 1025H763.238L678.62 878.85Z" stroke="#EAEAEA" stroke-miterlimit="10"/>
<path d="M763.243 1025L678.625 878.85H847.997L763.243 1025Z" stroke="#EAEAEA" stroke-miterlimit="10"/>
<path d="M847.996 878.85L763.242 1025H932.75L847.996 878.85Z" stroke="#EAEAEA" stroke-miterlimit="10"/>
<path d="M932.745 1025L847.991 878.85H1017.36L932.745 1025Z" stroke="#EAEAEA" stroke-miterlimit="10"/>
<path d="M1017.37 878.85L932.75 1025H1102.12L1017.37 878.85Z" stroke="#EAEAEA" stroke-miterlimit="10"/>
<path d="M1102.12 1025L1017.37 878.85H1186.88L1102.12 1025Z" stroke="#EAEAEA" stroke-miterlimit="10"/>
<path d="M1186.87 878.85L1102.12 1025H1271.49L1186.87 878.85Z" stroke="#EAEAEA" stroke-miterlimit="10"/>
<path d="M1271.49 1025L1186.88 878.85H1356.25L1271.49 1025Z" stroke="#EAEAEA" stroke-miterlimit="10"/>
<path d="M1356.25 878.85L1271.49 1025H1441L1356.25 878.85Z" stroke="#EAEAEA" stroke-miterlimit="10"/>
</svg>
