<svg width="25" height="24" viewBox="0 0 25 24" fill="none" xmlns="http://www.w3.org/2000/svg">
<path d="M17.4 9.19995L16.6 9.99995C18.3 10.9 19.1 12.3 19.4 13C18.7 13.9 16.6 16.1 12.4 16.1C11.7 16.1 11.2 16 10.6 15.9L9.80005 16.7C10.6 17 11.5 17.1 12.4 17.1C18.1 17.1 20.5 13.1 20.5 13.1C20.5 13.1 19.9 10.7 17.4 9.19995Z" fill="#1C2E45" fill-opacity="0.6"/>
<path d="M16.5 11.1C16.5 10.8 16.5 10.5 16.4 10.3L11.6 15C11.9 15 12.2 15.1 12.5 15.1C14.7 15.1 16.5 13.3 16.5 11.1Z" fill="#1C2E45" fill-opacity="0.6"/>
<path d="M19.8 4L15.4 8.4C14.6 8.2 13.6 8 12.5 8C5.8 8 4.5 13.1 4.5 13.1C4.5 13.1 5.5 14.9 7.8 16.1L4.5 19.3V20H5.2L20.5 4.7V4H19.8V4ZM8.5 15.3C6.9 14.6 6 13.5 5.6 13C5.9 12.3 6.7 10.8 8.7 9.8C8.6 10.2 8.5 10.6 8.5 11.1C8.5 12.2 9 13.3 9.8 14L8.5 15.3ZM10.7 11.9L9.7 12.1C9.7 12.1 9.4 11.6 9.4 10.9C9.4 10.1 9.8 9.4 9.8 9.4C10.3 9.1 11.1 9.1 11.1 9.1C11.1 9.1 10.6 10 10.6 10.8C10.5 11.5 10.7 11.9 10.7 11.9Z" fill="#1C2E45" fill-opacity="0.6"/>
</svg>
