<svg width="19" height="19" viewBox="0 0 19 19" fill="none" xmlns="http://www.w3.org/2000/svg">
<path fill-rule="evenodd" clip-rule="evenodd" d="M18.14 10.122C18.14 9.48382 18.0827 8.87019 17.9764 8.2811H9.5V11.7625H14.3436C14.135 12.8875 13.5009 13.8406 12.5477 14.4788V16.737H15.4564C17.1582 15.1702 18.14 12.8629 18.14 10.122Z" fill="#4285F4"/>
<path fill-rule="evenodd" clip-rule="evenodd" d="M9.5 18.9174C11.93 18.9174 13.9673 18.1115 15.4564 16.737L12.5477 14.4788C11.7418 15.0188 10.7109 15.3379 9.5 15.3379C7.15591 15.3379 5.17182 13.7547 4.46409 11.6274H1.45728V13.9593C2.93818 16.9006 5.98182 18.9174 9.5 18.9174Z" fill="#34A853"/>
<path fill-rule="evenodd" clip-rule="evenodd" d="M4.46409 11.6275C4.28409 11.0875 4.18182 10.5106 4.18182 9.91746C4.18182 9.32428 4.28409 8.74746 4.46409 8.20746V5.87564H1.45727C0.847727 7.09064 0.5 8.46519 0.5 9.91746C0.5 11.3697 0.847727 12.7443 1.45727 13.9593L4.46409 11.6275Z" fill="#FBBC05"/>
<path fill-rule="evenodd" clip-rule="evenodd" d="M9.5 4.497C10.8214 4.497 12.0077 4.95109 12.9405 5.8429L15.5218 3.26154C13.9632 1.80927 11.9259 0.91745 9.5 0.91745C5.98182 0.91745 2.93818 2.93427 1.45728 5.87563L4.46409 8.20745C5.17182 6.08018 7.15591 4.497 9.5 4.497Z" fill="#EA4335"/>
</svg>
