<svg width="105" height="25" viewBox="0 0 140 34" fill="none" xmlns="http://www.w3.org/2000/svg">
<path d="M66.0817 33.4174H82.8968V26.6005H72.8986V0.58255H66.0817" fill="#181818"/>
<path d="M86.3223 1.43467C86.3507 8.41634 86.2371 15.4264 86.3791 22.4081C86.6916 27.4185 90.7533 31.5854 95.4968 32.8522C100.808 34.3434 107.086 32.9346 110.636 28.5717C112.823 26.0381 113.363 22.6069 113.192 19.366V0.58255H106.347C106.319 7.47901 106.432 14.3755 106.29 21.2719C106.262 23.496 105.154 25.8336 102.995 26.734C99.8994 28.086 95.44 27.4668 93.8777 24.2004C92.6848 21.0759 93.3097 17.6419 93.1392 14.4039V0.58255H86.3223V1.43467Z" fill="#181818"/>
<path d="M119.549 1.48295V33.4174H140V26.6715H126.366V20.3801H140V13.6313H126.366V7.32847H140V0.58255H119.549V1.48295Z" fill="#181818"/>
<path d="M46.2359 26.4869V20.8913H42.8132C43.9493 18.5736 45.1025 16.2814 46.2359 13.9636V0.58255L29.7985 33.4174H36.6779C37.8141 31.1167 38.9787 28.816 40.1148 26.4869H46.2359Z" fill="#181818"/>
<path d="M46.2358 26.4869V20.8913H49.6585C48.5224 18.5736 47.3692 16.2814 46.2358 13.9636V0.58255L62.6732 33.4174H55.7937C54.6576 31.1167 53.493 28.816 52.3569 26.4869H46.2358Z" fill="#181818"/>
<path d="M18.9568 33.4174L0 0.58255H37.9135L18.9568 33.4174Z" fill="#181818"/>
<path d="M30.4206 13.5631L22.9248 0.58255H37.9135L30.4206 13.5631Z" fill="#327184"/>
</svg>
